<mxfile host="Electron" agent="Mozilla/5.0 (Windows NT 10.0; Win64; x64) AppleWebKit/537.36 (KHTML, like Gecko) draw.io/24.7.17 Chrome/128.0.6613.36 Electron/32.0.1 Safari/537.36" version="24.7.17">
  <diagram name="Page-1" id="XTwGfuPpkrDzUFqua_cQ">
    <mxGraphModel dx="2120" dy="957" grid="1" gridSize="10" guides="1" tooltips="1" connect="1" arrows="1" fold="1" page="1" pageScale="1" pageWidth="850" pageHeight="1100" background="#8A7F6C" math="0" shadow="0">
      <root>
        <mxCell id="0" />
        <mxCell id="1" parent="0" />
        <mxCell id="vKcmL4rBC40TlHLLyq11-2" value="&lt;font style=&quot;font-size: 24px;&quot;&gt;1. User Management&lt;/font&gt;" style="swimlane;whiteSpace=wrap;html=1;fillColor=#a20025;strokeColor=#6F0000;startSize=48;fontColor=#ffffff;gradientColor=none;swimlaneFillColor=#3B6794;absoluteArcSize=0;container=1;fontSize=24;align=center;spacing=0;" vertex="1" parent="1">
          <mxGeometry width="440" height="158" as="geometry">
            <mxRectangle x="140" y="170" width="260" height="48" as="alternateBounds" />
          </mxGeometry>
        </mxCell>
        <mxCell id="vKcmL4rBC40TlHLLyq11-19" value="&lt;p style=&quot;line-height: 100%;&quot;&gt;&lt;/p&gt;&lt;ol style=&quot;line-height: 150%;&quot;&gt;&lt;li&gt;&lt;span style=&quot;background-color: initial; font-size: 14px;&quot;&gt;&lt;b&gt;Signup&lt;/b&gt; → Users can sign up as&amp;nbsp;&lt;/span&gt;&lt;strong style=&quot;background-color: initial; font-size: 14px;&quot;&gt;guests&lt;/strong&gt;&lt;span style=&quot;background-color: initial; font-size: 14px;&quot;&gt;&amp;nbsp;or&amp;nbsp;&lt;/span&gt;&lt;strong style=&quot;background-color: initial; font-size: 14px;&quot;&gt;hosts&lt;/strong&gt;&lt;span style=&quot;background-color: initial; font-size: 14px;&quot;&gt;.&lt;/span&gt;&lt;/li&gt;&lt;li&gt;&lt;b style=&quot;background-color: initial; font-size: 14px;&quot;&gt;Login &lt;/b&gt;&lt;span style=&quot;background-color: initial; font-size: 14px;&quot;&gt;→ Users login via email and password.&lt;/span&gt;&lt;/li&gt;&lt;li&gt;&lt;b style=&quot;background-color: initial; font-size: 14px;&quot;&gt;Profile&lt;/b&gt;&lt;span style=&quot;background-color: initial; font-size: 14px;&quot;&gt;-&lt;/span&gt;&lt;b style=&quot;background-color: initial; font-size: 14px;&quot;&gt;Management &lt;/b&gt;&lt;span style=&quot;background-color: initial;&quot;&gt;&lt;span style=&quot;font-size: 14px;&quot;&gt;→ Enable users to update their profiles,&lt;br&gt;&lt;/span&gt;&lt;/span&gt;&lt;font style=&quot;font-size: 14px;&quot;&gt;including profile photos, contact info, and preferences.&lt;/font&gt;&lt;/li&gt;&lt;/ol&gt;&lt;span style=&quot;background-color: initial;&quot;&gt;&lt;span style=&quot;font-size: 14px;&quot;&gt;&lt;/span&gt;&lt;/span&gt;&lt;p&gt;&lt;/p&gt;" style="text;html=1;align=left;verticalAlign=middle;resizable=0;points=[];autosize=1;strokeColor=none;fillColor=none;fontFamily=Helvetica;fontSize=12;fontColor=default;spacing=0;spacingTop=0;" vertex="1" parent="vKcmL4rBC40TlHLLyq11-2">
          <mxGeometry y="48" width="440" height="110" as="geometry" />
        </mxCell>
        <mxCell id="vKcmL4rBC40TlHLLyq11-20" value="2.&amp;nbsp;Property Listings Management" style="swimlane;whiteSpace=wrap;html=1;fillColor=#a20025;strokeColor=#6F0000;startSize=48;fontColor=#ffffff;gradientColor=none;swimlaneFillColor=#3B6794;absoluteArcSize=0;container=1;fontSize=24;" vertex="1" parent="1">
          <mxGeometry x="480" width="460" height="128" as="geometry">
            <mxRectangle x="140" y="170" width="260" height="48" as="alternateBounds" />
          </mxGeometry>
        </mxCell>
        <mxCell id="vKcmL4rBC40TlHLLyq11-21" value="&lt;div style=&quot;line-height: 150%; font-size: 14px;&quot;&gt;&lt;p style=&quot;line-height: 150%;&quot;&gt;&lt;/p&gt;&lt;ol&gt;&lt;li&gt;&lt;span style=&quot;background-color: initial;&quot;&gt;&lt;b&gt;Create &lt;/b&gt;→ Hosts can create property listings.&lt;/span&gt;&lt;/li&gt;&lt;li&gt;&lt;span style=&quot;background-color: initial;&quot;&gt;&lt;b&gt;Edit/Delete&lt;/b&gt; → Hosts can update or remove their property listings&lt;/span&gt;&lt;/li&gt;&lt;/ol&gt;&lt;p&gt;&lt;/p&gt;&lt;/div&gt;" style="text;html=1;align=left;verticalAlign=middle;resizable=0;points=[];autosize=1;strokeColor=none;fillColor=none;fontFamily=Helvetica;fontSize=12;fontColor=default;spacing=0;" vertex="1" parent="vKcmL4rBC40TlHLLyq11-20">
          <mxGeometry y="48" width="460" height="80" as="geometry" />
        </mxCell>
        <mxCell id="vKcmL4rBC40TlHLLyq11-22" value="3.&amp;nbsp;Search and Filtering" style="swimlane;whiteSpace=wrap;html=1;fillColor=#a20025;strokeColor=#6F0000;startSize=48;fontColor=#ffffff;gradientColor=none;swimlaneFillColor=#3B6794;absoluteArcSize=0;container=1;fontSize=24;" vertex="1" parent="1">
          <mxGeometry y="180" width="840" height="98" as="geometry">
            <mxRectangle x="140" y="170" width="260" height="48" as="alternateBounds" />
          </mxGeometry>
        </mxCell>
        <mxCell id="vKcmL4rBC40TlHLLyq11-23" value="&lt;div style=&quot;line-height: 150%;&quot;&gt;&lt;ol style=&quot;line-height: 150%;&quot;&gt;&lt;li style=&quot;font-size: 14px;&quot;&gt;&lt;b&gt;Search &lt;/b&gt;→ Users can find properties by Location, Price range, Number of guests and Amenities (e.g., Wi-Fi, pool, pet-friendly)&lt;/li&gt;&lt;/ol&gt;&lt;/div&gt;" style="text;html=1;align=left;verticalAlign=middle;resizable=0;points=[];autosize=1;strokeColor=none;fillColor=none;fontFamily=Helvetica;fontSize=12;fontColor=default;spacing=0;" vertex="1" parent="vKcmL4rBC40TlHLLyq11-22">
          <mxGeometry y="48" width="840" height="50" as="geometry" />
        </mxCell>
        <mxCell id="vKcmL4rBC40TlHLLyq11-24" value="4.&amp;nbsp;Booking Management" style="swimlane;whiteSpace=wrap;html=1;fillColor=#a20025;strokeColor=#6F0000;startSize=48;fontColor=#ffffff;gradientColor=none;swimlaneFillColor=#3B6794;absoluteArcSize=0;container=1;fontSize=24;" vertex="1" parent="1">
          <mxGeometry y="305" width="680" height="148" as="geometry">
            <mxRectangle x="140" y="170" width="260" height="48" as="alternateBounds" />
          </mxGeometry>
        </mxCell>
        <mxCell id="vKcmL4rBC40TlHLLyq11-25" value="&lt;div style=&quot;line-height: 150%; font-size: 14px;&quot;&gt;&lt;p style=&quot;line-height: 150%;&quot;&gt;&lt;/p&gt;&lt;ol&gt;&lt;li&gt;&lt;span style=&quot;background-color: initial;&quot;&gt;&lt;b&gt;Booking Creation&lt;/b&gt; → Guests can book a property for specified dates.&lt;/span&gt;&lt;/li&gt;&lt;li&gt;&lt;span style=&quot;background-color: initial;&quot;&gt;&lt;b&gt;Booking Cancellation&lt;/b&gt; → Allow guests or hosts to cancel bookings based on the cancellation policy.&lt;/span&gt;&lt;/li&gt;&lt;li&gt;&lt;span style=&quot;background-color: initial;&quot;&gt;&lt;b&gt;Booking Status&lt;/b&gt; → Track booking statuses such as pending, confirmed, canceled, or completed.&lt;/span&gt;&lt;/li&gt;&lt;/ol&gt;&lt;p&gt;&lt;/p&gt;&lt;/div&gt;" style="text;html=1;align=left;verticalAlign=middle;resizable=0;points=[];autosize=1;strokeColor=none;fillColor=none;fontFamily=Helvetica;fontSize=12;fontColor=default;spacing=0;" vertex="1" parent="vKcmL4rBC40TlHLLyq11-24">
          <mxGeometry y="48" width="680" height="100" as="geometry" />
        </mxCell>
        <mxCell id="vKcmL4rBC40TlHLLyq11-26" value="5.&amp;nbsp;Payment Integration" style="swimlane;whiteSpace=wrap;html=1;fillColor=#a20025;strokeColor=#6F0000;startSize=48;fontColor=#ffffff;gradientColor=none;swimlaneFillColor=#3B6794;absoluteArcSize=0;container=1;fontSize=24;" vertex="1" parent="1">
          <mxGeometry x="700" y="305" width="270" height="118" as="geometry">
            <mxRectangle x="140" y="170" width="260" height="48" as="alternateBounds" />
          </mxGeometry>
        </mxCell>
        <mxCell id="vKcmL4rBC40TlHLLyq11-27" value="&lt;div style=&quot;line-height: 150%;&quot;&gt;&lt;ol style=&quot;line-height: 150%;&quot;&gt;&lt;li&gt;&lt;span style=&quot;font-size: 14px; background-color: initial;&quot;&gt;Support multiple currencies.&lt;/span&gt;&lt;/li&gt;&lt;li&gt;&lt;span style=&quot;background-color: initial; font-size: 14px;&quot;&gt;Provide secure payment gateways&lt;/span&gt;&lt;/li&gt;&lt;/ol&gt;&lt;/div&gt;" style="text;html=1;align=left;verticalAlign=middle;resizable=0;points=[];autosize=1;strokeColor=none;fillColor=none;fontFamily=Helvetica;fontSize=12;fontColor=default;spacing=0;" vertex="1" parent="vKcmL4rBC40TlHLLyq11-26">
          <mxGeometry y="48" width="270" height="70" as="geometry" />
        </mxCell>
        <mxCell id="vKcmL4rBC40TlHLLyq11-28" value="6.&amp;nbsp;Reviews and Ratings" style="swimlane;whiteSpace=wrap;html=1;fillColor=#a20025;strokeColor=#6F0000;startSize=48;fontColor=#ffffff;gradientColor=none;swimlaneFillColor=#3B6794;absoluteArcSize=0;container=1;fontSize=24;" vertex="1" parent="1">
          <mxGeometry y="480" width="380" height="118" as="geometry">
            <mxRectangle x="140" y="170" width="260" height="48" as="alternateBounds" />
          </mxGeometry>
        </mxCell>
        <mxCell id="vKcmL4rBC40TlHLLyq11-29" value="&lt;div style=&quot;line-height: 150%;&quot;&gt;&lt;ol style=&quot;line-height: 150%;&quot;&gt;&lt;li&gt;&lt;span style=&quot;font-size: 14px; background-color: initial;&quot;&gt;Guests can leave reviews and ratings for properties.&lt;/span&gt;&lt;/li&gt;&lt;li&gt;&lt;span style=&quot;background-color: initial; font-size: 14px;&quot;&gt;Hosts can respond to reviews.&lt;/span&gt;&lt;/li&gt;&lt;/ol&gt;&lt;/div&gt;" style="text;html=1;align=left;verticalAlign=middle;resizable=0;points=[];autosize=1;strokeColor=none;fillColor=none;fontFamily=Helvetica;fontSize=12;fontColor=default;spacing=0;" vertex="1" parent="vKcmL4rBC40TlHLLyq11-28">
          <mxGeometry y="48" width="380" height="70" as="geometry" />
        </mxCell>
        <mxCell id="vKcmL4rBC40TlHLLyq11-30" value="7.&amp;nbsp;Notifications System" style="swimlane;whiteSpace=wrap;html=1;fillColor=#a20025;strokeColor=#6F0000;startSize=48;fontColor=#ffffff;gradientColor=none;swimlaneFillColor=#3B6794;absoluteArcSize=0;container=1;fontSize=24;" vertex="1" parent="1">
          <mxGeometry x="400" y="480" width="690" height="98" as="geometry">
            <mxRectangle x="140" y="170" width="260" height="48" as="alternateBounds" />
          </mxGeometry>
        </mxCell>
        <mxCell id="vKcmL4rBC40TlHLLyq11-31" value="&lt;div style=&quot;line-height: 150%;&quot;&gt;&lt;ol style=&quot;line-height: 150%;&quot;&gt;&lt;li style=&quot;font-size: 14px;&quot;&gt;Support email and in-app notifications for: Booking confirmations, Cancellations and Payment updates&lt;br&gt;&lt;/li&gt;&lt;/ol&gt;&lt;/div&gt;" style="text;html=1;align=left;verticalAlign=middle;resizable=0;points=[];autosize=1;strokeColor=none;fillColor=none;fontFamily=Helvetica;fontSize=12;fontColor=default;spacing=0;" vertex="1" parent="vKcmL4rBC40TlHLLyq11-30">
          <mxGeometry y="48" width="690" height="50" as="geometry" />
        </mxCell>
      </root>
    </mxGraphModel>
  </diagram>
</mxfile>
